<svg width="24" height="24" viewBox="0 0 24 24" fill="none" xmlns="http://www.w3.org/2000/svg">
<g clip-path="url(#clip0_556_11)">
<path d="M14.379 8.54114C14.3976 8.48088 14.4041 8.41754 14.3981 8.35478C14.3922 8.29202 14.3739 8.23104 14.3444 8.17533C14.3149 8.11961 14.2747 8.07026 14.2262 8.03006C14.1776 7.98989 14.1215 7.95967 14.0613 7.94114C14.001 7.92261 13.9377 7.91611 13.8749 7.92206C13.8122 7.92799 13.7512 7.94625 13.6955 7.97575C13.6398 8.00525 13.5904 8.04544 13.5502 8.09402C13.51 8.14262 13.4798 8.19864 13.4613 8.2589L9.62128 20.7389C9.58386 20.8606 9.59632 20.9922 9.65591 21.1047C9.7155 21.2172 9.81736 21.3015 9.93904 21.3389C10.0607 21.3763 10.1923 21.3639 10.3049 21.3043C10.4174 21.2447 10.5016 21.1428 10.539 21.0211L14.379 8.54114ZM8.98 10.9402C9.02471 10.9848 9.06018 11.0377 9.08437 11.096C9.10856 11.1544 9.12102 11.2169 9.12102 11.28C9.12102 11.3431 9.10856 11.4057 9.08437 11.464C9.06018 11.5223 9.02471 11.5753 8.98 11.6199L5.95888 14.64L8.98 17.6602C9.07014 17.7503 9.12078 17.8726 9.12078 18C9.12078 18.1275 9.07014 18.2497 8.98 18.3399C8.88988 18.43 8.76762 18.4806 8.64016 18.4806C8.51269 18.4806 8.39046 18.43 8.30032 18.3399L4.94032 14.9799C4.89563 14.9353 4.86016 14.8823 4.83596 14.824C4.81177 14.7657 4.79932 14.7031 4.79932 14.64C4.79932 14.5769 4.81177 14.5144 4.83596 14.456C4.86016 14.3977 4.89563 14.3448 4.94032 14.3002L8.30032 10.9402C8.34491 10.8955 8.39788 10.86 8.4562 10.8358C8.51452 10.8116 8.57704 10.7992 8.64016 10.7992C8.7033 10.7992 8.76582 10.8116 8.82414 10.8358C8.88246 10.86 8.93543 10.8955 8.98 10.9402ZM15.0203 10.9402C14.9756 10.9848 14.9402 11.0377 14.916 11.096C14.8918 11.1544 14.8793 11.2169 14.8793 11.28C14.8793 11.3431 14.8918 11.4057 14.916 11.464C14.9402 11.5223 14.9756 11.5753 15.0203 11.6199L18.0414 14.64L15.0203 17.6602C14.9757 17.7048 14.9403 17.7578 14.9162 17.8161C14.892 17.8744 14.8796 17.9369 14.8796 18C14.8796 18.0631 14.892 18.1256 14.9162 18.1839C14.9403 18.2423 14.9757 18.2952 15.0203 18.3399C15.065 18.3845 15.1179 18.4199 15.1762 18.444C15.2346 18.4682 15.2971 18.4806 15.3602 18.4806C15.4233 18.4806 15.4858 18.4682 15.5441 18.444C15.6024 18.4199 15.6554 18.3845 15.7 18.3399L19.06 14.9799C19.1047 14.9353 19.1402 14.8823 19.1644 14.824C19.1886 14.7657 19.201 14.7031 19.201 14.64C19.201 14.5769 19.1886 14.5144 19.1644 14.456C19.1402 14.3977 19.1047 14.3448 19.06 14.3002L15.7 10.9402C15.6554 10.8955 15.6025 10.86 15.5441 10.8358C15.4858 10.8116 15.4233 10.7992 15.3602 10.7992C15.297 10.7992 15.2345 10.8116 15.1762 10.8358C15.1179 10.86 15.0649 10.8955 15.0203 10.9402Z" fill="#8137BE"/>
<path fill-rule="evenodd" clip-rule="evenodd" d="M1.92 0.96H22.08C22.6102 0.96 23.04 1.38981 23.04 1.92V5.28H0.96V1.92C0.96 1.38981 1.38981 0.96 1.92 0.96ZM0 6.24V5.28V1.92C0 0.859613 0.859613 0 1.92 0H22.08C23.1404 0 24 0.859613 24 1.92V5.28V6.24V22.08C24 23.1404 23.1404 24 22.08 24H1.92C0.859613 24 0 23.1404 0 22.08V6.24ZM23.04 6.24V22.08C23.04 22.6102 22.6102 23.04 22.08 23.04H1.92C1.38981 23.04 0.96 22.6102 0.96 22.08V6.24H23.04Z" fill="#8137BE"/>
<path d="M4.07988 2.64014H3.35988C3.09479 2.64014 2.87988 2.85504 2.87988 3.12014C2.87988 3.38523 3.09479 3.60014 3.35988 3.60014H4.07988C4.34498 3.60014 4.55988 3.38523 4.55988 3.12014C4.55988 2.85504 4.34498 2.64014 4.07988 2.64014Z" fill="#8137BE"/>
<path d="M6.47979 2.64014H5.75979C5.49469 2.64014 5.27979 2.85504 5.27979 3.12014C5.27979 3.38523 5.49469 3.60014 5.75979 3.60014H6.47979C6.74488 3.60014 6.95979 3.38523 6.95979 3.12014C6.95979 2.85504 6.74488 2.64014 6.47979 2.64014Z" fill="#8137BE"/>
</g>
<defs>
<clipPath id="clip0_556_11">
<rect width="24" height="24" fill="white"/>
</clipPath>
</defs>
</svg>
