<svg width="100" height="100" viewBox="0 0 100 100" fill="none" xmlns="http://www.w3.org/2000/svg">
<path d="M59.9126 35.5884C59.9899 35.3373 60.0169 35.0734 59.9921 34.8119C59.9674 34.5504 59.8914 34.2963 59.7684 34.0642C59.6455 33.832 59.478 33.6264 59.2756 33.4589C59.0732 33.2915 58.8397 33.1656 58.5886 33.0884C58.3376 33.0112 58.0737 32.9841 57.8122 33.0089C57.5507 33.0336 57.2966 33.1097 57.0644 33.2326C56.8323 33.3555 56.6266 33.523 56.4592 33.7254C56.2918 33.9279 56.1659 34.1613 56.0886 34.4124L40.0886 86.4124C39.9327 86.9195 39.9846 87.4677 40.2329 87.9366C40.4812 88.4054 40.9056 88.7564 41.4126 88.9124C41.9197 89.0683 42.468 89.0164 42.9369 88.7681C43.4057 88.5198 43.7567 88.0955 43.9126 87.5884L59.9126 35.5884ZM37.4166 45.5844C37.6029 45.7702 37.7507 45.9909 37.8515 46.2338C37.9523 46.4768 38.0042 46.7373 38.0042 47.0004C38.0042 47.2634 37.9523 47.5239 37.8515 47.7669C37.7507 48.0099 37.6029 48.2306 37.4166 48.4164L24.8286 61.0004L37.4166 73.5844C37.7922 73.9599 38.0032 74.4693 38.0032 75.0004C38.0032 75.5315 37.7922 76.0408 37.4166 76.4164C37.0411 76.7919 36.5317 77.0029 36.0006 77.0029C35.4695 77.0029 34.9602 76.7919 34.5846 76.4164L20.5846 62.4164C20.3984 62.2306 20.2506 62.0099 20.1498 61.7669C20.049 61.5239 19.9971 61.2634 19.9971 61.0004C19.9971 60.7373 20.049 60.4768 20.1498 60.2338C20.2506 59.9909 20.3984 59.7702 20.5846 59.5844L34.5846 45.5844C34.7704 45.3981 34.9911 45.2503 35.2341 45.1495C35.4771 45.0487 35.7376 44.9968 36.0006 44.9968C36.2637 44.9968 36.5242 45.0487 36.7672 45.1495C37.0102 45.2503 37.2309 45.3981 37.4166 45.5844ZM62.5846 45.5844C62.3984 45.7702 62.2506 45.9909 62.1498 46.2338C62.049 46.4768 61.9971 46.7373 61.9971 47.0004C61.9971 47.2634 62.049 47.5239 62.1498 47.7669C62.2506 48.0099 62.3984 48.2306 62.5846 48.4164L75.1726 61.0004L62.5846 73.5844C62.3987 73.7703 62.2512 73.9911 62.1506 74.234C62.0499 74.477 61.9981 74.7374 61.9981 75.0004C61.9981 75.2633 62.0499 75.5237 62.1506 75.7667C62.2512 76.0097 62.3987 76.2304 62.5846 76.4164C62.7706 76.6023 62.9914 76.7498 63.2343 76.8505C63.4773 76.9511 63.7377 77.0029 64.0006 77.0029C64.2636 77.0029 64.524 76.9511 64.767 76.8505C65.0099 76.7498 65.2307 76.6023 65.4166 76.4164L79.4166 62.4164C79.6029 62.2306 79.7507 62.0099 79.8515 61.7669C79.9523 61.5239 80.0042 61.2634 80.0042 61.0004C80.0042 60.7373 79.9523 60.4768 79.8515 60.2338C79.7507 59.9909 79.6029 59.7702 79.4166 59.5844L65.4166 45.5844C65.2309 45.3981 65.0102 45.2503 64.7672 45.1495C64.5242 45.0487 64.2637 44.9968 64.0006 44.9968C63.7376 44.9968 63.4771 45.0487 63.2341 45.1495C62.9911 45.2503 62.7704 45.3981 62.5846 45.5844Z" fill="#8137BE"/>
<path fill-rule="evenodd" clip-rule="evenodd" d="M8 4H92C94.2091 4 96 5.79086 96 8V22H4V8C4 5.79086 5.79086 4 8 4ZM0 26V22V8C0 3.58172 3.58172 0 8 0H92C96.4183 0 100 3.58172 100 8V22V26V92C100 96.4183 96.4183 100 92 100H8C3.58172 100 0 96.4183 0 92V26ZM96 26V92C96 94.2091 94.2091 96 92 96H8C5.79086 96 4 94.2091 4 92V26H96Z" fill="#8137BE"/>
<rect x="12" y="11" width="7" height="4" rx="2" fill="#8137BE"/>
<rect x="22" y="11" width="7" height="4" rx="2" fill="#8137BE"/>
</svg>
