<svg width="24" height="24" viewBox="0 0 24 24" fill="none" xmlns="http://www.w3.org/2000/svg">
<g clip-path="url(#clip0_482_11)">
<path d="M13.3141 21.6875C13.3141 22.273 12.8535 22.7521 12.2905 22.7521H2.05437C1.49138 22.7521 1.03076 22.273 1.03076 21.6875V2.3126C1.03076 1.7271 1.49138 1.24805 2.05437 1.24805H12.2905C12.8535 1.24805 13.3141 1.7271 13.3141 2.3126V21.6875Z" stroke="#8137BE" stroke-width="1.5" stroke-miterlimit="10"/>
<path d="M0.979492 4.49463H13.314" stroke="#8137BE" stroke-width="1.5" stroke-miterlimit="10"/>
<path d="M5.17627 2.95117H9.11716" stroke="#8137BE" stroke-width="1.5" stroke-miterlimit="10"/>
<path d="M0.979492 19.5581H13.314" stroke="#8137BE" stroke-width="1.5" stroke-miterlimit="10"/>
<path d="M14.2861 21.2616H15.2074L15.668 18.1211C16.3333 17.9614 16.8963 17.6953 17.4593 17.3759L19.916 19.2921L21.2467 17.9082L19.4042 15.3532C19.7625 14.7677 20.0183 14.1822 20.1719 13.4903L23.1915 13.0112V11.0418L20.1719 10.5628C20.0183 9.92406 19.7625 9.28529 19.4554 8.69979L21.2978 6.14485L19.9672 4.76093L17.5105 6.67713C16.9475 6.30454 16.3846 6.0384 15.7192 5.87872L15.3097 2.73828H14.3374" stroke="#8137BE" stroke-width="1.5" stroke-miterlimit="10"/>
<path d="M14.2861 9.17871C15.7703 9.17871 16.9987 10.4562 16.9987 11.9998C16.9987 13.5434 15.7703 14.8208 14.2861 14.8208" stroke="#8137BE" stroke-width="1.5" stroke-miterlimit="10"/>
<path d="M2.61719 7.31592H3.84552" stroke="#8137BE" stroke-width="1.5" stroke-miterlimit="10"/>
<path d="M5.17627 7.31592H6.4046" stroke="#8137BE" stroke-width="1.5" stroke-miterlimit="10"/>
<path d="M7.73535 7.31592H8.96369" stroke="#8137BE" stroke-width="1.5" stroke-miterlimit="10"/>
<path d="M10.2944 7.31592H11.5228" stroke="#8137BE" stroke-width="1.5" stroke-miterlimit="10"/>
<path d="M2.66846 9.97754H3.89679" stroke="#8137BE" stroke-width="1.5" stroke-miterlimit="10"/>
<path d="M5.22754 9.97754H6.45587" stroke="#8137BE" stroke-width="1.5" stroke-miterlimit="10"/>
<path d="M7.78662 9.97754H9.01496" stroke="#8137BE" stroke-width="1.5" stroke-miterlimit="10"/>
<path d="M10.3452 9.97754H11.5736" stroke="#8137BE" stroke-width="1.5" stroke-miterlimit="10"/>
<path d="M2.71924 12.6387H3.94758" stroke="#8137BE" stroke-width="1.5" stroke-miterlimit="10"/>
<path d="M5.27881 12.6387H6.50714" stroke="#8137BE" stroke-width="1.5" stroke-miterlimit="10"/>
<path d="M7.8374 12.6387H9.06574" stroke="#8137BE" stroke-width="1.5" stroke-miterlimit="10"/>
<path d="M10.3965 12.6387H11.6248" stroke="#8137BE" stroke-width="1.5" stroke-miterlimit="10"/>
<path d="M2.82178 17.4824H4.05011" stroke="#8137BE" stroke-width="1.5" stroke-miterlimit="10"/>
<path d="M5.38086 17.4824H6.60919" stroke="#8137BE" stroke-width="1.5" stroke-miterlimit="10"/>
<path d="M7.93994 17.4824H9.16827" stroke="#8137BE" stroke-width="1.5" stroke-miterlimit="10"/>
<path d="M10.499 17.4824H11.7274" stroke="#8137BE" stroke-width="1.5" stroke-miterlimit="10"/>
</g>
<defs>
<clipPath id="clip0_482_11">
<rect width="24" height="24" fill="white"/>
</clipPath>
</defs>
</svg>
